<?xml version="1.0" standalone="no"?>
<!DOCTYPE svg PUBLIC "-//W3C//DTD SVG 20010904//EN"
 "http://www.w3.org/TR/2001/REC-SVG-20010904/DTD/svg10.dtd">
<svg version="1.0" xmlns="http://www.w3.org/2000/svg"
 width="700.000000pt" height="700.000000pt" viewBox="0 0 700.000000 700.000000"
 preserveAspectRatio="xMidYMid meet">
<metadata>
Created by potrace 1.11, written by Peter Selinger 2001-2013
</metadata>
<g transform="translate(0.000000,700.000000) scale(0.100000,-0.100000)"
fill="#000000" stroke="none">
<path d="M3491 6603 c-59 -29 -61 -41 -61 -369 l0 -296 34 -34 c57 -57 141
-42 171 30 18 42 19 582 1 617 -27 53 -93 77 -145 52z"/>
<path d="M4417 6344 c-1 -1 -21 -4 -44 -8 -144 -19 -341 -102 -466 -195 -48
-35 -149 -136 -206 -205 -44 -54 -98 -145 -127 -213 -15 -37 -29 -69 -29 -71
-1 -1 -49 -5 -106 -7 -57 -3 -113 -7 -125 -9 -11 -2 -52 -8 -90 -12 -38 -4
-71 -9 -74 -9 -6 -2 -79 -17 -100 -20 -35 -7 -120 -29 -185 -48 -38 -11 -74
-22 -80 -23 -52 -14 -224 -87 -327 -138 -453 -228 -831 -602 -1061 -1047 -102
-199 -184 -419 -173 -469 6 -33 43 -80 63 -80 15 0 16 -2 2 -60 -17 -70 -18
-78 -34 -195 -8 -60 -16 -131 -17 -156 -1 -44 -3 -47 -36 -55 -60 -15 -76 -49
-76 -157 1 -270 63 -572 176 -852 23 -55 45 -106 51 -112 7 -10 -5 -13 -54
-13 -35 0 -310 -1 -611 -3 l-548 -2 -25 -25 c-14 -14 -29 -40 -34 -57 -12 -42
16 -105 55 -121 22 -9 706 -12 2902 -10 l2874 3 24 28 c41 48 44 101 7 144
-28 31 -53 41 -110 41 -29 0 -66 1 -82 1 l-30 1 38 87 c66 152 141 400 157
520 3 26 8 50 9 53 2 3 6 37 10 75 3 39 8 81 11 94 6 28 6 360 0 406 -2 17 -7
62 -11 100 l-7 71 128 0 c153 0 208 7 300 35 315 96 534 393 536 728 1 97 -8
148 -38 241 -53 157 -138 274 -278 380 -56 42 -180 103 -233 115 -27 5 -33 11
-33 33 0 35 -43 153 -77 211 -42 73 -159 181 -236 219 -120 59 -246 78 -375
58 -40 -7 -43 -5 -53 21 -31 84 -75 164 -97 179 -14 9 -45 18 -69 19 -40 1
-47 6 -100 68 -32 36 -79 83 -105 104 -43 34 -48 42 -48 78 0 64 -8 79 -58
111 -40 26 -149 76 -217 99 -40 14 -152 36 -210 41 -60 6 -244 11 -248 8z"/>
<path d="M1194 5652 c-55 -8 -98 -100 -70 -150 17 -32 396 -411 426 -426 81
-41 173 39 149 128 -8 29 -381 415 -423 438 -21 11 -51 15 -82 10z"/>
<path d="M240 3333 c-56 -18 -93 -65 -85 -108 2 -11 4 -25 4 -32 1 -7 13 -25
27 -40 l26 -28 302 -3 c302 -3 302 -3 336 20 46 31 61 83 37 134 -29 60 -50
64 -359 63 -150 0 -280 -3 -288 -6z"/>
<path d="M6233 3321 c-65 -41 -73 -113 -19 -167 l34 -34 297 0 c259 0 300 2
325 17 61 36 70 110 21 165 l-29 33 -299 3 c-282 2 -300 1 -330 -17z"/>
<path d="M6463 2183 c-37 -7 -73 -59 -73 -105 0 -32 7 -47 34 -74 l34 -34 191
0 c216 0 237 5 265 65 21 43 10 88 -30 126 -25 23 -30 24 -212 26 -103 0 -197
-1 -209 -4z"/>
<path d="M804 1661 c-66 -40 -69 -135 -5 -178 l34 -23 439 0 c379 0 445 2 473
16 31 14 52 47 59 90 6 31 -34 92 -67 104 -19 6 -189 10 -466 10 -409 0 -438
-1 -467 -19z"/>
<path d="M2161 1667 c-82 -42 -82 -152 0 -194 35 -19 2303 -18 2339 0 14 7 34
29 45 49 18 35 19 40 5 80 -29 84 66 78 -1225 78 -885 0 -1145 -3 -1164 -13z"/>
<path d="M3071 1207 c-58 -15 -89 -97 -58 -156 30 -59 -43 -56 1302 -56 1150
1 1232 2 1256 18 47 31 62 93 35 145 -31 59 41 56 -1286 57 -671 0 -1233 -3
-1249 -8z"/>
<path d="M5910 1199 c-80 -49 -75 -152 10 -193 28 -14 358 -15 397 -2 73 24
86 141 21 188 -28 19 -43 21 -215 22 -158 1 -189 -1 -213 -15z"/>
<path d="M2543 600 c-91 -25 -112 -145 -34 -197 24 -16 78 -17 651 -18 344 -1
640 3 658 8 60 15 89 95 57 156 -28 56 -26 55 -697 56 -339 0 -625 -2 -635 -5z"/>
<path d="M4285 602 c-32 -4 -74 -44 -84 -77 -11 -41 7 -93 42 -119 24 -18 42
-20 167 -20 l140 0 33 32 c27 27 31 39 31 77 -2 47 -19 76 -59 98 -18 10 -219
17 -270 9z"/>
</g>
</svg>
